<svg width="320" height="96" xmlns="http://www.w3.org/2000/svg" data-name="Layer 1">

 <title>software-program</title>
 <g fill="#333" fill-rule="evenodd">
  <title>Layer 1</title>
  <path stroke="null" id="svg_1" fill-rule="evenodd" d="m3.89942,20l66.08119,0a1.90509,2.00145 0 0 1 1.89941,1.99547l0,46.00344a1.90509,2.00145 0 0 1 -1.89941,1.99547l-66.08119,0a1.90509,2.00145 0 0 1 -1.89941,-2.00742l0,-46.00344a1.90509,2.00145 0 0 1 1.89941,-1.98352zm26.15951,37.34045l0.06824,0l1.80273,-1.09333a0.12511,0.13144 0 0 0 0.02843,-0.0478a0.04549,0.0478 0 0 0 0,-0.04182l-1.97334,-3.58468l0,0a0.25022,0.26288 0 0 1 -0.03412,-0.09559a0.31278,0.3286 0 0 1 0.24453,-0.39432l2.90029,-0.63329l0,0a1.55251,1.63103 0 0 0 0.60281,-0.26288a0.36965,0.38834 0 0 0 0.1308,-0.17326a0.14217,0.14936 0 0 0 0,-0.11949a0.81891,0.86032 0 0 0 -0.25591,-0.26288l-9.83256,-7.12755l0.91558,12.49262a0.81891,0.86032 0 0 0 0.0853,0.36444a0.14786,0.15534 0 0 0 0.09668,0.07767a0.36396,0.38237 0 0 0 0.20473,-0.03585a1.46721,1.54141 0 0 0 0.5175,-0.41224l1.97334,-2.33004l0,0a0.3014,0.31665 0 0 1 0.07962,-0.07169a0.32415,0.34054 0 0 1 0.43789,0.12546l1.9904,3.58468a0.05118,0.05377 0 0 0 0.03412,0l-0.01706,0.04182zm-17.49844,-23.30044a0.7336,0.77071 0 0 0 -0.7336,0.84838l0,1.60713a0.7336,0.77071 0 0 0 1.25111,0.54965a0.71654,0.75278 0 0 0 0.22179,-0.54965l0,-0.96189l0.7336,0a0.7336,0.77071 0 1 0 0,-1.54141l-1.47289,0.0478zm0.7336,5.54431a0.7336,0.77071 0 0 0 -1.25111,-0.54965a0.71654,0.75278 0 0 0 -0.22179,0.54965l0,1.54739a0.7336,0.77071 0 0 0 1.25111,0.54965a0.71654,0.75278 0 0 0 0.22179,-0.54965l0,-1.57129l0,0.0239zm0,4.63619a0.73929,0.77668 0 0 0 -1.25111,-0.55563a0.7336,0.77071 0 0 0 -0.22179,0.55563l0,1.54141a0.73929,0.77668 0 0 0 1.25111,0.55563a0.7336,0.77071 0 0 0 0.22179,-0.55563l0,-1.56531l0,0.0239zm0,4.63022a0.73929,0.77668 0 0 0 -1.25111,-0.54965a0.72792,0.76473 0 0 0 -0.22179,0.54965l0,1.54739a0.73929,0.77668 0 1 0 1.47289,0l0,-1.57129l0,0.0239zm0,4.63619a0.7336,0.77071 0 0 0 -1.25111,-0.54965a0.71654,0.75278 0 0 0 -0.22179,0.54965l0,1.40998a0.73929,0.77668 0 0 0 0.73929,0.80655l0.09668,0a0.73929,0.77668 0 0 0 0.63693,-1.16502l0,-1.08138l0,0.02987zm2.30317,0.66914a0.7336,0.77071 0 0 0 -0.52319,1.31438a0.71654,0.75278 0 0 0 0.52319,0.233l1.47289,0a0.73929,0.77668 0 0 0 0.52319,-1.31438a0.71654,0.75278 0 0 0 -0.52319,-0.233l-1.47289,0zm4.413,0a0.73929,0.77668 0 0 0 -0.52888,1.31438a0.7336,0.77071 0 0 0 0.52888,0.233l1.46721,0a0.94402,0.99176 0 0 0 0.18767,0l-0.10805,-1.51752l-1.52976,0l-0.01706,-0.02987zm10.99268,-10.13271a0.73929,0.77668 0 0 0 1.25111,0.54965a0.71654,0.75278 0 0 0 0.22179,-0.54965l0,-1.54739a0.7336,0.77071 0 0 0 -1.25111,-0.54965a0.71654,0.75278 0 0 0 -0.22179,0.54965l0,1.54739zm0,-4.63619a0.73929,0.77668 0 1 0 1.47289,0l0,-1.54739a0.73929,0.77668 0 0 0 -1.25111,-0.54965a0.72792,0.76473 0 0 0 -0.22179,0.54965l0,1.54739zm0.68811,-3.85353a0.7336,0.77071 0 0 0 0.52319,-1.30841a0.71654,0.75278 0 0 0 -0.52319,-0.233l-1.47289,0a0.7336,0.77071 0 0 0 -0.52319,1.30841a0.71654,0.75278 0 0 0 0.52319,0.233l1.47289,0zm-4.413,0a0.7336,0.77071 0 1 0 0,-1.54141l-1.46721,0a0.7336,0.77071 0 1 0 0,1.54141l1.46721,0zm-4.40731,0a0.7336,0.77071 0 0 0 0,-1.54141l-1.47289,0a0.7336,0.77071 0 1 0 0,1.54141l1.47289,0zm-4.413,0a0.7336,0.77071 0 0 0 0.52319,-1.30841a0.71654,0.75278 0 0 0 -0.52319,-0.233l-1.47289,0a0.7336,0.77071 0 0 0 -0.52319,1.30841a0.71654,0.75278 0 0 0 0.52319,0.233l1.47289,0zm30.74311,28.552c-0.05687,-11.67412 -0.83028,-25.80375 0,-37.12537l-44.71001,0l0,35.3629a1.70605,1.79234 0 0 0 1.70605,1.79234l43.00396,-0.02987zm4.69734,-31.14492a0.85871,0.90215 0 1 1 0,-1.79234l11.57843,0a0.85871,0.90215 0 1 1 0,1.79234l-11.57843,0zm1.10894,22.81054l9.36055,0a2.34867,2.46746 0 0 1 2.34298,2.48538l0,0a2.35436,2.47343 0 0 1 -2.34298,2.46746l-9.36055,0a2.35436,2.47343 0 0 1 -2.34298,-2.46746l0,0a2.34867,2.46746 0 0 1 2.34298,-2.46148l0,-0.0239zm-1.13737,-4.12836a0.85871,0.90215 0 0 1 0,-1.79234l11.64667,0a0.85871,0.90215 0 0 1 0,1.79234l-11.64667,0zm0.21041,-6.2254a0.85871,0.90215 0 1 1 0,-1.79234l11.22584,0a0.85871,0.90215 0 0 1 0,1.79234l-11.22584,0zm-0.22179,-6.2254a0.85871,0.90215 0 1 1 0,-1.79234l11.66373,0a0.85871,0.90215 0 0 1 0,1.79234l-11.66373,0zm14.84836,24.573l0,-36.35466l-18.033,0l0,36.69521l17.06055,0a1.63213,1.71467 0 0 0 0.98382,-0.34054l-0.01137,0zm-40.37663,8.96171l17.23115,0c0.04549,3.13062 1.27385,5.93863 4.60066,8.14321l-26.43816,0c2.67851,-2.0373 4.61204,-4.50475 4.60066,-8.14321l0.00569,0zm38.38624,-49.76735a1.13737,1.19489 0 1 1 -1.13737,1.19489a1.13737,1.19489 0 0 1 1.13737,-1.19489zm-7.64313,0a1.13737,1.19489 0 1 1 -1.13737,1.19489a1.13737,1.19489 0 0 1 1.13737,-1.19489zm3.82156,0a1.13737,1.19489 0 1 1 -1.13737,1.19489a1.13737,1.19489 0 0 1 1.13737,-1.19489z" class="cls-1"/>
  <text font-style="normal" font-weight="normal" transform="matrix(1.02111 0 0 3.41124 -38.2584 -82.4496)" stroke="null" xml:space="preserve" text-anchor="start" font-family="'Open Sans Light'" font-size="16" stroke-width="2" fill="#333" id="svg_4" y="44" x="115">SOFTWARE &amp; DATA ENGINEER</text>
 </g>
</svg>